<?xml version="1.0" standalone="no"?>
<!DOCTYPE svg PUBLIC "-//W3C//DTD SVG 20010904//EN"
 "http://www.w3.org/TR/2001/REC-SVG-20010904/DTD/svg10.dtd">
<svg version="1.0" xmlns="http://www.w3.org/2000/svg"
 width="800.000000pt" height="800.000000pt" viewBox="0 0 800.000000 800.000000"
 preserveAspectRatio="xMidYMid meet">
<metadata>
Created by potrace 1.14, written by Peter Selinger 2001-2017
</metadata>
<g transform="translate(0.000000,800.000000) scale(0.100000,-0.100000)"
fill="#000000" stroke="none">
<path d="M1802 7939 c2 -7 -6 -13 -17 -14 -11 0 -25 -4 -32 -8 -6 -4 -13 -2
-15 4 -3 8 -9 6 -20 -4 -12 -12 -18 -13 -28 -4 -9 8 -11 8 -7 1 4 -7 0 -14 -8
-18 -8 -3 -15 0 -15 7 -1 7 -7 1 -14 -12 -8 -14 -15 -19 -17 -12 -3 7 -12 9
-22 6 -9 -4 -15 -10 -12 -14 2 -4 -2 -8 -10 -8 -8 0 -12 5 -8 10 3 5 -6 1 -21
-8 -14 -9 -33 -15 -41 -11 -9 3 -13 2 -10 -4 3 -6 1 -10 -5 -10 -6 0 -8 -4 -5
-10 3 -5 0 -7 -9 -4 -18 7 -76 -22 -76 -39 0 -9 -3 -8 -9 1 -6 11 -10 10 -15
-3 -4 -10 -12 -15 -22 -11 -8 3 -12 2 -9 -4 3 -6 -1 -10 -9 -10 -8 0 -21 -6
-28 -12 -24 -22 -58 -39 -68 -33 -5 3 -12 0 -16 -6 -4 -8 -3 -9 4 -5 7 4 12 2
12 -3 0 -6 -4 -11 -9 -11 -5 0 -13 -9 -16 -20 -4 -11 -11 -18 -16 -14 -6 3
-13 -4 -16 -15 -4 -17 -8 -19 -19 -10 -10 8 -12 6 -9 -10 2 -12 0 -19 -6 -16
-5 4 -9 1 -9 -4 0 -6 -6 -11 -13 -11 -7 0 -18 -9 -25 -20 -7 -12 -17 -18 -22
-15 -5 3 -7 0 -4 -8 3 -8 0 -18 -5 -22 -6 -3 -9 -11 -6 -16 6 -8 -9 -13 -28
-10 -5 1 -6 -3 -2 -9 3 -6 11 -7 17 -4 7 4 8 2 4 -4 -4 -7 -14 -12 -23 -12 -9
0 -13 -6 -9 -15 5 -14 -5 -20 -27 -16 -4 1 -3 -9 4 -21 6 -13 8 -20 4 -16 -12
11 -32 -15 -27 -36 4 -15 1 -18 -11 -13 -11 4 -15 1 -12 -13 2 -11 -1 -22 -6
-25 -5 -4 -7 -11 -4 -16 4 -5 2 -9 -2 -9 -5 0 -9 -8 -10 -18 -1 -9 -8 -36 -16
-60 -9 -25 -11 -42 -5 -42 6 0 4 -7 -3 -17 -8 -9 -13 -18 -11 -20 1 -1 2 -4 1
-5 0 -2 -3 -16 -5 -33 -8 -45 -12 -70 -15 -72 -1 -2 -2 -6 -3 -10 -1 -5 -5
-13 -9 -20 -4 -6 -3 -14 3 -18 6 -3 7 -14 2 -23 -4 -9 -6 -98 -5 -197 4 -200
5 -225 14 -225 3 0 5 -16 4 -36 0 -19 3 -38 8 -41 4 -2 2 -12 -5 -21 -10 -12
-10 -14 0 -8 12 7 15 0 15 -36 0 -10 4 -18 8 -18 5 0 9 -13 9 -29 0 -17 5 -33
10 -36 6 -4 8 -11 4 -16 -3 -5 0 -17 8 -26 11 -14 11 -16 -2 -8 -12 7 -13 6
-3 -7 7 -8 9 -19 5 -23 -4 -5 -2 -5 4 -2 7 4 14 -2 17 -13 3 -11 1 -18 -4 -14
-5 3 -6 -2 -3 -10 3 -9 11 -16 16 -16 6 0 8 -9 5 -20 -3 -11 -1 -20 5 -20 5 0
6 -4 3 -10 -3 -5 -2 -10 2 -10 5 0 10 -12 11 -27 1 -15 6 -29 10 -32 5 -3 11
-16 14 -28 4 -16 2 -20 -11 -17 -9 3 -6 -1 7 -7 12 -7 22 -21 22 -31 0 -13 -4
-17 -12 -12 -8 4 -10 3 -5 -2 5 -5 14 -9 20 -9 6 0 15 -16 20 -35 5 -19 14
-38 20 -42 8 -5 4 -8 -8 -8 -16 0 -17 -2 -5 -9 8 -6 18 -7 24 -4 5 4 7 -1 3
-9 -3 -9 1 -24 8 -35 8 -10 15 -27 15 -37 0 -11 8 -28 17 -38 20 -22 29 -63
11 -52 -7 4 -8 3 -4 -5 4 -6 11 -9 16 -6 5 3 12 -6 16 -20 3 -14 11 -25 16
-25 6 0 8 -6 5 -14 -3 -8 1 -20 8 -26 8 -7 13 -16 10 -20 -3 -4 2 -13 10 -20
8 -7 15 -21 15 -31 0 -10 5 -21 11 -24 6 -4 8 -13 5 -20 -3 -8 2 -19 10 -25 8
-7 14 -16 14 -21 0 -15 43 -104 54 -111 6 -4 7 -8 2 -8 -5 0 -3 -6 3 -13 6 -8
8 -17 4 -20 -3 -4 -1 -7 6 -7 7 0 10 -4 7 -9 -3 -5 1 -14 10 -21 8 -7 13 -19
10 -26 -3 -7 2 -15 11 -18 8 -4 13 -13 10 -20 -3 -8 1 -20 8 -26 8 -7 12 -16
9 -21 -3 -5 0 -9 6 -9 6 0 8 -4 5 -10 -3 -5 -2 -10 2 -10 8 0 45 -77 40 -84
-1 -2 7 -13 17 -25 11 -12 15 -21 11 -21 -4 0 -1 -8 7 -17 14 -16 25 -47 34
-92 1 -8 8 -18 16 -22 7 -4 10 -11 6 -14 -3 -4 0 -22 8 -41 8 -19 11 -34 8
-34 -4 0 -1 -7 6 -15 7 -9 10 -18 7 -22 -4 -3 -2 -12 3 -18 10 -12 21 -71 24
-127 0 -16 5 -28 9 -28 5 0 7 -19 6 -43 -2 -24 1 -48 5 -55 4 -6 9 -38 12 -69
3 -32 7 -60 9 -61 2 -2 0 -15 -6 -29 -5 -13 -5 -22 0 -19 4 3 9 -29 10 -71 1
-48 6 -80 14 -85 8 -5 8 -8 1 -8 -15 0 -14 -70 1 -70 5 0 3 -5 -5 -10 -13 -9
-13 -11 0 -20 10 -6 11 -10 3 -10 -16 0 -15 -80 1 -80 7 0 7 -3 -1 -8 -6 -4
-12 -40 -14 -87 -1 -44 -7 -85 -11 -92 -5 -6 -5 -14 0 -17 6 -3 7 -20 2 -39
-4 -18 -3 -43 1 -55 5 -12 5 -22 0 -22 -5 0 -7 -12 -5 -27 1 -15 -3 -44 -11
-65 -9 -27 -9 -38 -1 -38 6 0 6 -4 -3 -9 -8 -5 -9 -11 -3 -15 8 -5 10 -41 2
-41 -3 0 -11 -39 -12 -55 0 -8 -5 -21 -11 -27 -5 -7 -6 -13 -1 -13 5 0 9 -16
9 -35 0 -24 -5 -35 -14 -35 -11 0 -12 -3 -4 -11 9 -9 8 -16 -4 -27 -10 -11
-12 -17 -4 -20 7 -2 8 -9 1 -22 -5 -10 -6 -20 -1 -22 5 -2 4 -14 -2 -28 -12
-29 -15 -48 -19 -112 -1 -32 -7 -48 -16 -48 -9 0 -10 -5 -3 -18 5 -10 6 -24 1
-32 -5 -8 -4 -22 1 -32 7 -14 6 -18 -5 -18 -9 0 -13 -6 -10 -14 3 -8 1 -17 -5
-20 -6 -4 -6 -18 -1 -36 5 -17 5 -28 1 -26 -4 3 -12 -13 -18 -35 -5 -21 -7
-39 -4 -39 12 0 3 -64 -9 -68 -8 -3 -7 -9 2 -20 8 -10 9 -13 1 -9 -15 10 -21
-12 -13 -48 4 -17 3 -41 -1 -53 -5 -12 -5 -30 -2 -39 4 -10 2 -14 -4 -10 -6 4
-13 -2 -16 -13 -3 -11 -1 -20 4 -20 6 0 5 -8 -1 -20 -8 -15 -8 -20 2 -20 9 0
9 -3 0 -12 -7 -7 -12 -20 -12 -30 0 -10 -4 -18 -9 -18 -6 0 -6 -12 -1 -30 5
-17 5 -30 0 -30 -5 0 -6 -8 -3 -17 5 -13 3 -15 -12 -9 -18 7 -18 6 1 -15 10
-12 13 -19 5 -14 -11 6 -13 4 -8 -8 3 -9 2 -19 -4 -23 -5 -3 -6 -11 -2 -17 13
-19 9 -47 -7 -57 -10 -6 -11 -10 -3 -10 7 0 10 -7 7 -15 -4 -8 -9 -13 -13 -11
-3 2 -6 -26 -6 -62 0 -37 -5 -116 -10 -177 -10 -108 -11 -581 -2 -620 3 -11 8
-54 12 -95 4 -41 10 -84 12 -95 3 -11 6 -29 7 -41 1 -11 6 -25 10 -32 4 -7 5
-16 1 -21 -3 -5 -1 -12 4 -15 4 -3 12 -25 16 -48 8 -44 11 -54 15 -63 1 -3 3
-8 4 -12 1 -5 5 -14 10 -22 6 -10 5 -12 -2 -7 -8 5 -10 2 -6 -8 3 -9 10 -16
16 -16 5 0 6 -10 3 -21 -5 -16 -4 -19 6 -14 9 6 11 2 7 -13 -4 -12 -3 -22 1
-22 3 0 12 -9 18 -20 11 -17 10 -19 -5 -14 -12 4 -11 2 3 -8 13 -8 19 -21 17
-32 -3 -13 0 -16 9 -11 9 6 11 3 6 -9 -4 -10 -1 -19 8 -22 8 -4 15 -12 15 -20
0 -8 5 -14 11 -14 7 0 9 -9 6 -21 -5 -17 -3 -18 9 -8 8 7 14 8 13 3 -4 -21 2
-35 12 -28 7 4 10 1 7 -7 -3 -8 9 -24 26 -36 16 -13 24 -23 17 -23 -8 0 -20 8
-28 18 -13 15 -13 15 -4 -5 6 -12 20 -25 31 -28 11 -3 20 -14 20 -22 0 -9 3
-13 6 -10 7 7 44 -30 44 -45 0 -4 3 -7 8 -7 20 3 32 -2 32 -16 0 -9 6 -12 17
-8 12 5 15 2 10 -9 -4 -12 -1 -14 13 -11 10 3 21 -1 25 -8 6 -8 4 -10 -6 -4
-8 5 -10 4 -6 0 4 -5 14 -10 21 -11 14 -2 76 -28 108 -45 10 -5 25 -9 33 -9 8
0 15 -5 15 -12 0 -6 3 -8 7 -5 3 4 13 1 21 -6 13 -10 14 -9 7 2 -6 11 -5 12 6
5 8 -5 25 -10 39 -12 13 -2 30 -8 37 -14 7 -5 17 -7 22 -3 6 3 20 1 31 -5 14
-8 20 -8 20 0 0 6 5 8 12 4 15 -9 249 -8 279 1 16 5 20 4 15 -6 -4 -8 -1 -7 6
3 8 9 29 18 48 20 19 1 38 7 41 11 4 5 18 10 33 10 14 1 26 5 26 9 0 4 16 12
35 19 19 7 35 17 35 22 0 4 5 5 10 2 6 -3 10 -1 10 4 0 6 7 11 15 11 8 0 15 4
15 8 0 5 15 17 34 27 19 11 33 23 30 27 -3 4 0 8 5 8 6 0 20 9 31 20 11 11 18
20 15 20 -3 0 4 11 17 25 36 38 49 55 43 55 -3 0 6 18 20 40 14 22 25 47 25
55 0 9 4 14 9 10 6 -3 8 4 6 15 -2 11 0 20 4 20 4 0 8 6 9 13 0 6 3 19 5 27 2
8 8 33 12 55 12 54 12 55 14 58 1 1 4 25 7 52 2 28 6 64 9 80 2 17 7 65 10
109 7 100 13 144 20 156 3 6 1 10 -5 10 -6 0 -8 4 -5 10 3 5 8 87 11 182 7
219 7 228 17 228 4 0 3 9 -3 20 -6 11 -7 20 -2 20 4 0 5 27 2 60 -3 33 -3 60
1 60 4 0 4 14 -1 30 -5 17 -6 30 -2 30 4 0 7 209 7 465 0 256 -2 465 -5 465
-3 0 -7 12 -8 28 -4 42 -7 56 -16 71 -5 8 -4 16 4 21 9 6 9 9 1 11 -11 4 -26
199 -23 299 3 113 1 201 -6 245 -5 28 -8 76 -8 108 1 31 -3 57 -7 57 -4 0 -3
10 4 21 7 13 7 19 1 15 -6 -4 -11 2 -11 11 -1 30 -10 96 -15 110 -3 7 -1 13 5
13 6 0 7 6 2 13 -4 6 -8 23 -8 37 0 14 -4 31 -9 38 -4 7 -5 16 -2 19 3 3 1 14
-5 24 -7 14 -6 19 2 19 8 0 8 4 -1 15 -7 8 -10 24 -7 35 3 11 1 23 -4 26 -5 3
-9 23 -9 44 0 21 -5 42 -11 46 -8 4 -7 9 2 15 8 5 9 9 3 9 -6 0 -11 6 -11 13
-3 42 -21 138 -27 145 -3 2 -1 13 4 23 7 12 6 20 -1 24 -6 4 -8 14 -5 22 4 9
2 11 -6 7 -7 -5 -9 0 -6 13 3 12 2 27 -3 34 -4 8 -3 20 4 28 10 12 9 13 -1 7
-9 -5 -13 -3 -11 5 1 8 -1 22 -6 32 -4 10 -5 21 -2 24 4 3 2 14 -4 24 -7 14
-6 19 3 19 10 0 10 2 1 8 -11 7 -20 48 -28 122 -1 14 -4 27 -5 30 -2 3 -4 10
-5 15 -2 6 -4 12 -5 15 -4 12 -13 77 -14 103 -1 15 -5 27 -10 27 -4 0 -6 7 -2
15 3 8 1 15 -4 15 -6 0 -9 3 -8 8 1 4 -4 32 -10 63 -22 98 -25 113 -26 142 0
15 -3 27 -6 27 -6 0 -8 14 -13 80 -1 19 -6 40 -10 47 -4 6 -3 14 3 18 6 4 7
12 3 18 -10 17 -11 47 -1 47 5 0 4 9 -2 20 -6 11 -7 20 -3 20 5 0 8 18 6 40
-1 23 6 59 17 83 11 23 20 38 20 32 0 -5 6 1 13 15 15 30 64 49 129 49 46 1
118 -24 118 -41 0 -4 7 -8 16 -8 8 0 12 -4 9 -10 -3 -5 -1 -10 5 -10 6 0 26
-16 46 -35 19 -19 31 -35 27 -35 -4 0 2 -7 13 -16 10 -8 12 -12 4 -8 -10 5 -9
1 3 -14 11 -12 16 -26 11 -34 -4 -7 -3 -10 1 -5 10 8 46 -63 39 -75 -3 -5 0
-8 7 -8 6 0 9 -8 6 -20 -3 -11 -2 -18 3 -15 7 4 22 -46 25 -80 0 -5 4 -16 8
-22 5 -8 3 -13 -5 -13 -10 0 -9 -3 2 -10 8 -5 11 -12 7 -16 -4 -4 -3 -12 2
-18 9 -10 20 -62 27 -116 1 -14 3 -25 4 -25 3 0 9 -30 14 -70 7 -54 16 -93 26
-119 7 -18 6 -26 -1 -26 -8 0 -8 -4 0 -13 6 -8 8 -17 4 -20 -3 -4 0 -7 7 -7 7
0 10 -3 7 -6 -3 -4 -2 -15 4 -25 6 -12 6 -19 0 -19 -6 0 -4 -15 5 -35 8 -19
12 -35 9 -35 -2 0 0 -11 5 -25 7 -18 6 -25 -3 -25 -8 0 -8 -3 2 -9 7 -5 15
-24 16 -42 2 -19 5 -35 6 -36 1 -2 2 -6 3 -10 1 -5 5 -14 9 -20 5 -8 3 -13 -4
-13 -8 0 -8 -4 1 -15 17 -20 23 -88 8 -79 -7 4 -8 3 -4 -5 4 -6 11 -9 16 -6
11 7 19 -30 10 -45 -5 -8 0 -27 11 -46 12 -22 15 -34 7 -34 -9 0 -9 -3 0 -12
7 -7 12 -22 12 -35 0 -13 4 -23 8 -23 5 0 7 -14 6 -30 -1 -17 3 -33 9 -37 6
-4 7 -1 2 7 -5 9 -4 11 4 6 9 -6 9 -11 -1 -24 -11 -13 -11 -14 1 -7 11 6 13 3
9 -13 -4 -12 -3 -22 0 -22 4 0 8 -21 8 -46 1 -27 7 -50 15 -55 8 -5 9 -9 3 -9
-6 0 -11 -7 -11 -15 0 -8 4 -12 9 -9 6 4 12 -40 6 -48 -1 -2 4 -13 11 -25 9
-18 9 -23 -1 -23 -8 0 -9 -3 -3 -8 6 -4 11 -41 12 -82 1 -41 6 -89 11 -105 5
-17 9 -49 8 -72 0 -22 2 -39 5 -37 4 2 9 -3 13 -11 3 -8 0 -15 -7 -15 -9 0 -9
-2 -1 -8 12 -7 26 -63 28 -109 1 -13 5 -23 10 -23 4 0 6 -6 3 -13 -3 -7 1 -21
9 -32 17 -22 18 -39 3 -30 -6 4 -5 -2 3 -14 7 -12 15 -21 19 -21 5 0 7 -8 11
-49 1 -11 7 -19 12 -18 6 1 18 -13 27 -30 9 -18 19 -29 23 -26 4 4 9 -3 13
-15 3 -12 9 -22 14 -22 5 0 18 -9 29 -20 11 -11 20 -18 20 -16 0 3 15 -1 34
-9 18 -8 36 -11 40 -8 3 4 6 2 6 -3 0 -5 30 -8 67 -7 75 2 105 6 146 22 15 6
27 8 27 5 0 -2 20 7 45 20 25 14 45 23 45 20 0 -3 12 7 26 21 14 15 32 24 40
21 9 -3 11 0 7 12 -3 9 -3 14 2 10 4 -4 21 8 38 27 16 19 34 32 39 29 4 -3 8
0 8 5 0 6 8 19 18 30 101 109 127 145 116 162 -4 8 -3 9 4 5 7 -4 19 6 30 23
10 17 22 28 27 23 5 -4 5 -2 2 5 -4 6 -1 17 6 25 8 7 12 19 9 27 -3 10 0 12
11 8 11 -4 14 0 12 19 -1 15 4 28 11 31 8 3 12 9 9 14 -3 4 -1 17 5 29 5 11
15 29 20 40 6 11 10 27 10 35 0 8 4 15 9 15 5 0 7 9 4 20 -3 12 0 20 6 20 7 0
10 4 7 9 -4 5 -1 22 5 38 10 26 16 48 23 81 1 8 9 18 17 23 9 5 10 9 2 9 -9 0
-9 8 -1 33 6 17 14 34 17 37 3 3 7 16 8 30 2 39 8 56 23 76 9 11 10 15 3 10
-9 -5 -11 -2 -7 8 3 9 11 13 17 9 6 -3 7 -1 3 6 -8 13 14 81 26 81 4 0 7 3 6
8 -3 13 15 47 35 64 11 10 17 18 13 18 -4 0 -1 6 6 14 7 8 16 12 21 9 4 -2 7
3 7 13 0 11 6 15 20 11 11 -3 18 -2 15 3 -3 4 2 11 11 14 10 4 13 2 9 -7 -4
-6 0 -4 8 5 8 10 23 16 35 13 12 -2 22 1 22 6 0 6 8 6 20 -1 11 -6 20 -7 20
-3 0 4 5 1 10 -7 8 -12 10 -12 10 -1 0 11 3 11 15 1 8 -7 13 -16 10 -20 -3 -5
0 -12 6 -16 8 -5 9 -3 4 6 -6 10 -4 12 9 7 10 -4 20 -7 22 -7 2 0 4 -5 4 -11
0 -5 -4 -7 -10 -4 -5 3 -10 1 -10 -4 0 -6 3 -11 8 -11 21 -1 34 -22 39 -69 6
-55 -14 -174 -27 -166 -5 3 -7 -3 -5 -12 1 -10 -5 -27 -14 -37 -9 -11 -10 -16
-3 -12 20 12 14 -12 -10 -35 -13 -12 -18 -19 -12 -16 6 3 11 0 11 -7 0 -8 -7
-12 -15 -8 -10 3 -13 1 -8 -6 4 -7 3 -12 -3 -12 -6 0 -8 -7 -5 -15 4 -8 -1
-17 -9 -21 -9 -3 -14 -14 -12 -25 3 -12 0 -17 -7 -13 -7 5 -9 0 -6 -14 4 -12
2 -20 -3 -16 -5 3 -9 0 -9 -6 0 -6 -5 -8 -12 -4 -8 5 -7 0 2 -11 12 -15 12
-17 1 -10 -11 6 -13 4 -8 -8 4 -12 1 -17 -11 -17 -15 0 -15 -2 -2 -10 8 -5 10
-10 5 -10 -6 0 -16 -14 -22 -31 -7 -17 -16 -28 -22 -25 -5 4 -13 1 -17 -5 -4
-8 -3 -9 4 -5 17 10 15 -10 -3 -28 -9 -8 -16 -18 -15 -21 1 -20 -1 -25 -9 -21
-5 4 -7 -4 -4 -16 3 -13 2 -20 -2 -16 -9 9 -45 -65 -49 -100 -2 -12 -11 -29
-22 -38 -10 -8 -13 -13 -6 -9 20 10 14 -11 -12 -36 -13 -13 -22 -32 -20 -42 1
-9 -2 -15 -7 -11 -5 3 -9 0 -9 -6 0 -6 -4 -9 -9 -6 -5 4 -8 -2 -7 -11 4 -22
-14 -64 -24 -58 -4 2 -6 -6 -5 -18 1 -12 -3 -28 -9 -36 -9 -12 -8 -13 4 -6 8
4 5 -2 -7 -14 -13 -12 -26 -33 -29 -46 -3 -14 -10 -22 -15 -19 -5 3 -6 -2 -3
-10 4 -10 1 -16 -7 -16 -11 0 -11 -3 1 -10 8 -5 10 -10 4 -10 -7 0 -18 -20
-25 -45 -7 -25 -19 -45 -25 -45 -7 0 -10 -8 -7 -19 3 -10 0 -22 -6 -25 -6 -4
-11 -16 -11 -27 0 -10 -5 -19 -11 -19 -5 0 -8 -4 -5 -9 9 -14 -5 -42 -17 -34
-5 3 -7 1 -3 -5 3 -6 2 -13 -3 -16 -5 -3 -7 -15 -4 -26 3 -11 0 -20 -6 -20 -6
0 -10 -3 -9 -7 1 -9 -10 -59 -19 -83 -4 -8 -7 -18 -8 -22 -2 -5 -3 -9 -5 -10
-1 -2 -3 -12 -5 -23 -2 -11 -8 -21 -14 -23 -5 -2 -7 -10 -4 -19 5 -12 3 -14
-7 -8 -9 5 -11 4 -6 -3 7 -12 -13 -92 -23 -92 -3 0 -7 -13 -8 -30 -1 -16 -8
-40 -14 -52 -7 -13 -14 -32 -15 -43 -2 -18 -10 -53 -14 -65 -3 -8 -7 -24 -8
-38 -1 -8 -7 -10 -14 -6 -10 5 -10 4 -1 -6 7 -8 9 -19 4 -29 -10 -17 -11 -23
-11 -47 0 -8 -3 -13 -7 -11 -5 3 -8 -11 -9 -31 0 -21 -3 -50 -7 -67 -5 -16
-10 -41 -12 -55 -5 -29 -13 -63 -15 -70 -3 -7 -6 -32 -8 -58 -1 -13 -5 -21 -9
-19 -5 3 -8 -16 -9 -41 0 -26 -3 -60 -7 -77 -3 -16 -9 -59 -12 -95 -3 -36 -9
-81 -13 -100 -8 -38 -8 -450 1 -490 3 -14 9 -47 13 -75 4 -27 9 -54 10 -60 2
-5 5 -19 7 -31 3 -11 12 -37 21 -57 8 -21 12 -36 7 -33 -4 3 -8 -1 -8 -9 0 -8
3 -13 5 -10 8 8 34 -34 27 -45 -3 -6 1 -13 9 -16 9 -3 16 -11 16 -17 0 -6 8
-19 18 -30 12 -15 13 -19 2 -13 -8 4 -1 -4 15 -19 22 -19 25 -24 10 -20 -12 4
-8 0 8 -10 15 -8 27 -18 27 -21 0 -3 -5 -2 -12 2 -7 4 -8 3 -4 -4 4 -7 12 -12
18 -12 5 0 22 -13 38 -30 15 -16 31 -26 35 -22 3 4 6 3 5 -3 -5 -23 1 -34 14
-29 8 3 19 -3 25 -15 6 -11 21 -23 33 -26 13 -4 31 -17 41 -29 10 -11 16 -16
13 -10 -3 6 12 2 34 -8 22 -11 40 -22 40 -25 0 -2 -5 -1 -12 3 -7 4 -8 3 -4
-5 4 -6 12 -8 18 -5 5 4 20 2 31 -4 22 -10 53 -21 62 -22 3 0 21 -9 41 -20 19
-11 33 -16 29 -10 -3 6 0 7 9 4 9 -3 13 -11 9 -17 -3 -6 -1 -7 6 -3 6 4 40 1
74 -8 34 -9 73 -18 87 -20 14 -2 25 -5 25 -6 0 -1 9 -3 20 -5 11 -1 34 -6 50
-10 38 -9 505 -14 510 -5 5 9 37 6 54 -5 10 -5 12 -4 7 3 -8 13 37 28 53 18 5
-4 12 -2 16 4 3 5 17 10 31 10 13 0 24 4 24 9 0 5 11 8 25 6 14 -1 25 1 25 5
0 10 79 32 90 25 5 -3 12 -1 15 5 5 8 11 7 21 -1 11 -9 14 -9 14 0 0 7 5 9 10
6 6 -3 10 0 10 7 0 9 3 9 10 -2 8 -13 10 -12 10 3 0 9 7 18 15 18 29 3 33 4
42 13 5 5 2 6 -7 2 -8 -4 -6 -1 4 8 10 8 22 13 26 11 5 -3 11 2 14 11 3 8 10
13 14 10 5 -3 16 4 25 15 10 11 23 17 30 13 6 -4 9 -4 5 1 -9 10 19 38 31 30
5 -3 13 0 17 6 5 8 3 9 -7 3 -8 -4 5 11 29 34 24 23 48 39 54 36 6 -4 8 -3 5
3 -4 6 2 18 13 28 11 10 20 27 20 38 0 13 5 17 16 13 10 -4 13 -2 8 6 -4 6 -1
16 7 22 8 6 14 18 14 26 0 8 6 14 13 12 7 -1 12 5 10 15 -2 11 2 17 10 15 10
-2 10 2 1 19 -6 12 -7 19 -1 15 11 -7 54 68 45 78 -4 3 -1 6 5 6 7 0 12 9 12
20 0 11 4 20 10 20 5 0 7 7 4 15 -4 8 -1 15 6 15 9 0 9 4 -1 17 -8 9 -9 14 -3
10 13 -8 27 19 18 34 -3 5 3 9 13 10 10 0 13 3 6 5 -9 4 -8 15 2 45 8 21 14
42 14 44 0 3 5 31 12 63 7 31 11 65 10 75 -1 9 2 17 7 17 5 0 10 24 11 53 3
85 15 170 27 188 2 4 0 11 -6 14 -8 5 -7 11 1 21 6 8 8 14 3 14 -5 0 -9 11 -9
25 0 14 2 25 5 25 3 0 5 61 5 135 0 74 -4 135 -9 135 -5 0 -3 6 3 14 9 10 9
16 1 21 -8 5 -8 10 0 20 8 10 8 15 0 20 -8 5 -8 10 0 20 8 10 8 15 0 20 -8 5
-8 11 -1 19 6 7 8 16 4 20 -8 8 -9 18 -17 141 -9 163 -10 241 -2 254 6 9 5 12
-1 8 -14 -9 -22 54 -22 158 1 44 0 82 -1 85 -5 11 -10 60 -14 148 -3 51 -8
112 -11 135 -3 23 -7 104 -9 179 -3 75 -7 142 -11 148 -3 5 -1 10 6 10 8 0 8
4 2 13 -6 6 -10 19 -11 27 0 8 -3 112 -6 230 -3 118 -9 249 -13 290 -11 128
-6 240 11 269 4 6 2 11 -4 11 -6 0 -9 4 -5 10 3 5 7 59 10 119 2 61 6 115 10
121 4 6 8 37 10 68 3 73 25 172 38 172 5 0 5 6 -2 13 -6 8 -8 16 -6 19 3 3 7
14 9 25 12 58 40 159 47 169 5 6 6 13 3 16 -3 4 2 21 12 40 10 18 19 42 20 53
3 24 8 43 19 68 4 9 5 24 2 31 -4 11 -1 13 11 9 14 -6 15 -4 5 9 -11 12 -10
18 5 31 12 11 18 29 17 52 -1 19 1 32 6 30 12 -8 25 36 31 110 2 17 9 36 16
44 11 11 11 15 1 22 -11 6 -10 9 3 14 9 4 14 13 12 20 -3 7 -1 22 5 33 7 13 7
23 -2 32 -9 10 -9 11 2 5 11 -6 13 -3 8 14 -3 14 0 24 9 28 11 4 12 9 3 19 -9
11 -8 14 1 14 7 0 10 7 6 15 -3 8 -1 15 4 15 6 0 9 3 8 8 -5 17 13 112 22 117
7 4 6 13 0 26 -8 14 -7 19 1 19 6 0 9 9 6 20 -3 11 -2 18 2 15 4 -2 9 19 10
48 1 29 6 54 11 55 6 2 10 10 10 18 0 9 -5 12 -11 8 -6 -3 -4 5 6 19 11 17 13
27 5 32 -6 3 -8 11 -5 16 4 5 8 39 10 77 3 37 7 78 10 92 3 14 8 61 11 105 3
44 8 94 10 110 8 57 12 620 4 640 -4 12 -4 28 1 37 6 11 5 19 -1 23 -6 4 -7
12 -3 18 11 18 12 37 3 37 -5 0 -9 8 -10 18 -2 37 -9 97 -11 97 -1 0 -3 9 -4
20 -2 11 -11 54 -20 95 -9 41 -18 85 -19 96 -1 12 -8 29 -15 38 -11 13 -11 16
0 16 9 0 10 3 4 8 -13 9 -39 64 -36 76 1 5 -3 12 -9 16 -6 4 -12 16 -13 28 0
12 -7 24 -15 27 -8 3 -11 12 -8 21 3 8 2 13 -3 10 -8 -5 -25 22 -21 32 1 2 -6
9 -16 16 -9 7 -14 18 -10 24 4 7 1 12 -8 12 -9 0 -16 6 -16 14 0 8 -10 18 -21
21 -13 4 -17 10 -11 14 7 4 4 11 -9 20 -16 9 -19 9 -14 0 5 -8 4 -10 -4 -5 -6
4 -9 11 -6 16 3 4 -18 27 -47 51 -28 24 -59 52 -70 62 -10 9 -18 15 -18 12 0
-3 -9 3 -19 13 -38 33 -51 43 -51 35 0 -4 -4 -3 -8 2 -11 16 -100 57 -185 85
-43 15 -74 30 -70 35 5 5 1 4 -8 -3 -9 -6 -18 -10 -20 -8 -7 7 -56 15 -134 22
-109 10 -119 10 -142 2 -12 -4 -25 -3 -28 2 -4 7 -13 7 -24 0 -12 -6 -22 -5
-31 3 -10 9 -11 9 -6 0 5 -9 -2 -13 -21 -14 -56 -3 -108 -7 -108 -9 0 -2 -61
-17 -109 -25 -16 -3 -37 -10 -47 -16 -10 -5 -22 -8 -26 -7 -4 1 -18 -3 -30
-10 -13 -7 -23 -10 -23 -7 0 3 -11 -2 -25 -11 -14 -9 -25 -13 -25 -9 0 3 -7
-1 -16 -9 -8 -9 -20 -14 -25 -11 -5 4 -9 2 -9 -3 0 -5 -18 -17 -40 -27 -22
-10 -40 -22 -40 -27 0 -5 -4 -7 -9 -4 -5 3 -12 -1 -15 -10 -4 -9 -9 -14 -13
-11 -3 4 -14 -3 -24 -15 -11 -11 -19 -18 -19 -13 0 4 -10 -4 -21 -19 -12 -15
-32 -32 -45 -36 -13 -5 -24 -17 -24 -26 0 -10 -5 -14 -14 -11 -10 4 -13 1 -9
-9 3 -7 1 -14 -4 -14 -10 0 -113 -150 -113 -166 -1 -5 -14 -24 -30 -43 -16
-19 -27 -38 -24 -43 3 -4 0 -8 -6 -8 -6 0 -9 -4 -5 -9 3 -5 -2 -17 -11 -25 -9
-9 -11 -16 -4 -16 7 0 5 -6 -4 -16 -14 -13 -22 -50 -17 -77 1 -5 -3 -6 -9 -2
-9 5 -12 -7 -9 -31 0 -4 -5 -11 -13 -15 -10 -7 -10 -9 0 -9 7 0 11 -4 8 -9 -3
-5 -8 -37 -11 -72 -4 -35 -9 -71 -12 -79 -8 -22 -9 -260 -1 -260 4 0 7 -8 6
-17 -1 -44 11 -193 16 -202 4 -5 8 -48 10 -94 2 -47 6 -89 10 -95 8 -13 15
-418 8 -479 -2 -24 -8 -40 -13 -37 -5 3 -5 -6 1 -20 5 -14 6 -26 1 -26 -9 0
-8 -31 3 -48 4 -7 2 -12 -5 -12 -8 0 -9 -3 0 -13 6 -8 8 -16 5 -20 -3 -3 -7
-29 -9 -59 -1 -29 -4 -55 -5 -58 -1 -3 -3 -9 -5 -15 -1 -5 -3 -12 -4 -15 -1
-3 -3 -34 -5 -70 -5 -109 -5 -112 -18 -104 -10 6 -10 5 -1 -8 7 -8 11 -17 8
-20 -3 -2 -7 -18 -9 -34 -13 -88 -19 -120 -25 -124 -3 -3 -8 -16 -9 -30 -2
-14 -8 -26 -12 -28 -4 -2 -6 -12 -3 -22 3 -12 0 -20 -6 -20 -7 0 -9 -5 -6 -10
7 -12 -22 -107 -39 -129 -8 -11 -8 -13 1 -7 9 5 11 2 7 -8 -3 -9 -10 -16 -16
-16 -5 0 -6 -4 -3 -10 3 -5 1 -10 -4 -10 -6 0 -11 -9 -11 -20 0 -11 -4 -20
-10 -20 -5 0 -10 -7 -10 -16 0 -8 -4 -13 -9 -10 -5 4 -8 -5 -7 -19 2 -13 0
-22 -4 -20 -8 5 -36 -23 -42 -40 -2 -5 -9 -10 -15 -11 -7 -1 -25 -12 -39 -23
-15 -12 -47 -26 -71 -32 -23 -6 -41 -14 -39 -18 5 -7 -139 -5 -159 2 -6 3 -18
1 -25 -3 -8 -5 -19 -6 -25 -2 -20 13 -47 13 -39 0 6 -9 3 -9 -9 0 -9 8 -22 10
-28 6 -7 -4 -9 -3 -5 4 8 13 -29 26 -45 16 -8 -5 -9 -3 -4 6 6 10 3 12 -13 8
-12 -4 -20 -2 -16 3 5 9 -9 13 -33 10 -7 -1 -13 5 -13 13 0 8 -10 18 -22 22
-13 3 -31 13 -40 21 -9 8 -22 12 -29 7 -7 -4 -10 -3 -5 4 3 6 0 17 -8 25 -8 8
-12 18 -8 22 4 5 -1 5 -12 1 -13 -4 -17 -2 -13 8 4 10 1 13 -9 9 -8 -3 -14 -2
-13 3 4 24 -2 36 -16 30 -8 -3 -14 0 -12 7 1 7 -5 11 -13 9 -8 -2 -12 0 -8 4
8 8 -32 41 -44 37 -4 -2 -5 4 -1 13 3 8 -2 20 -11 27 -9 7 -18 22 -19 35 0 12
-5 22 -10 22 -5 0 -15 7 -23 15 -12 12 -12 15 -2 15 9 1 8 4 -4 13 -9 7 -18
22 -20 32 -1 11 -10 26 -18 33 -8 8 -9 11 -3 7 9 -4 11 -1 7 9 -3 9 -11 13
-17 9 -6 -4 -8 0 -4 10 3 10 3 17 -1 17 -10 0 -33 61 -26 71 3 5 0 9 -6 9 -6
0 -8 5 -5 10 3 6 2 10 -3 10 -5 0 -9 6 -10 13 -1 14 -6 34 -15 62 -3 11 -8 38
-12 60 -3 21 -11 43 -18 47 -6 4 -9 8 -5 8 4 0 -1 29 -11 64 -10 35 -17 78
-17 95 1 17 -2 31 -5 31 -4 0 -7 10 -8 23 -1 12 -3 36 -4 52 -1 17 -5 32 -8
35 -4 3 -9 28 -13 57 -3 28 -8 57 -11 65 -3 7 -7 36 -9 65 -2 28 -6 55 -9 60
-3 4 -8 40 -11 78 -4 39 -9 86 -11 105 -2 19 -7 71 -10 115 -4 44 -8 96 -10
115 -2 19 -6 69 -10 110 -7 99 -13 154 -16 160 -1 3 -3 16 -4 30 -2 14 -4 27
-5 30 -3 5 -5 19 -14 75 -3 17 -14 61 -25 100 -11 38 -17 73 -15 77 3 4 0 8
-7 8 -8 0 -7 5 2 17 8 9 9 14 4 11 -6 -4 -17 2 -24 14 -10 16 -10 19 1 12 7
-4 4 3 -7 15 -11 13 -19 25 -17 27 1 2 -1 16 -4 30 -4 16 -11 23 -20 20 -12
-5 -12 -2 -3 15 9 17 8 20 -2 14 -9 -6 -10 -3 -5 11 4 10 4 16 1 12 -4 -3 -15
1 -24 10 -13 13 -15 21 -7 32 6 8 7 12 2 8 -9 -7 -20 2 -46 37 -14 19 -14 19
6 5 13 -10 12 -7 -4 8 -13 12 -20 27 -17 32 3 6 -1 10 -9 10 -9 0 -16 7 -16
16 0 8 -4 12 -10 9 -5 -3 -10 0 -10 8 0 8 -7 18 -16 21 -8 3 -12 10 -9 16 3 5
1 10 -5 10 -6 0 -18 7 -26 15 -9 8 -13 15 -10 15 3 0 -13 17 -36 38 -66 57
-67 59 -61 66 4 3 1 6 -5 6 -7 0 -30 18 -52 40 -23 23 -45 38 -50 35 -6 -4
-10 0 -10 7 0 7 -20 24 -45 37 -24 13 -42 28 -38 34 4 6 1 7 -6 2 -7 -4 -22 2
-37 16 -13 12 -24 19 -24 15 0 -4 -13 2 -29 13 -16 12 -34 21 -41 21 -6 0 -8
4 -5 10 4 6 -1 7 -11 3 -10 -4 -15 -2 -11 4 3 5 0 10 -8 11 -8 1 -22 3 -30 4
-8 1 -15 5 -15 10 0 4 -6 8 -12 8 -7 0 -26 7 -41 15 -15 8 -36 16 -45 17 -9 2
-19 6 -22 10 -3 4 -16 9 -28 11 -12 2 -25 6 -28 10 -4 4 -18 7 -31 7 -13 0
-22 4 -19 8 3 5 -5 8 -17 7 -12 -1 -41 4 -64 11 -24 7 -43 10 -43 7 0 -3 -10
2 -22 13 -12 10 -18 13 -13 5 6 -11 4 -13 -11 -7 -26 11 -315 16 -386 7 -32
-4 -65 -3 -73 2 -11 5 -15 4 -13 -4z m4718 -7523 c0 -2 -8 -10 -17 -17 -16
-13 -17 -12 -4 4 13 16 21 21 21 13z"/>
<path d="M5289 7673 c-13 -16 -12 -17 4 -4 9 7 17 15 17 17 0 8 -8 3 -21 -13z"/>
<path d="M3930 4911 c0 -6 4 -13 10 -16 6 -3 7 1 4 9 -7 18 -14 21 -14 7z"/>
<path d="M4110 4741 c0 -6 4 -13 10 -16 6 -3 7 1 4 9 -7 18 -14 21 -14 7z"/>
</g>
</svg>
