<svg width="94" height="115" viewBox="0 0 94 115" fill="none" xmlns="http://www.w3.org/2000/svg">
<path d="M50.9592 20.3845C43.2027 20.3845 36.6171 21.1123 29.3878 24.2687C21.5677 27.6831 6.78123 32.455 4.00159 41.6784C0.79819 52.3078 1.77981 65.3777 3.30797 76.2204C4.6867 86.0028 7.39068 95.0187 14.1977 102.439C18.722 107.371 25.1003 110.016 31.5727 111.144C40.7895 112.75 54.4679 114.056 63.2015 109.826C68.3686 107.323 72.3181 100.8 75.86 96.4739C80.2915 91.0616 85.4057 85.359 88.5531 79.0642C91.0279 74.1146 91.4975 68.6272 91.5356 63.1804C91.5778 57.1477 92.2738 50.5295 90.4605 44.6956C86.5916 32.2478 78.5956 24.266 67.9874 17.1938C58.3715 10.7832 47.828 6.63462 36.7402 3.46028C30.6638 1.72068 26.1818 1.29466 20.3709 3.52964" stroke="white" stroke-width="3" stroke-linecap="round"/>
<path d="M49.0865 37.8635C49.0865 42.1292 49.0865 46.395 49.0865 50.6607C49.0865 55.515 48.038 61.5529 49.2252 66.3017C50.584 71.7369 75.7493 53.5598 79.6748 51.5971" stroke="white" stroke-width="3" stroke-linecap="round"/>
</svg>
