<svg width="127" height="106" viewBox="0 0 127 106" fill="none" xmlns="http://www.w3.org/2000/svg">
<path d="M34.2018 63.2664C34.2018 69.393 34.1625 75.5208 34.2018 81.6472C34.231 86.2133 34.6888 90.7485 34.7913 95.3114C34.8479 97.8306 34.4526 100.74 35.485 103.149C36.5636 105.666 40.6046 98.5361 41.0685 97.4616C42.5048 94.1354 44.9778 91.1203 46.9989 88.1325C50.1162 83.5244 52.6299 78.4107 56.0159 73.9828C60.5691 68.0286 70.9134 70.7575 77.6913 70.7575C83.6512 70.7575 89.725 71.3602 95.3091 68.8847C102.499 65.6976 109.768 61.272 116.395 57.0239C120.788 54.2081 124.774 50.84 124.718 45.3712C124.608 34.4402 118.399 27.6731 108.835 22.8288C101.725 19.2276 93.94 17.2231 86.3615 14.8869C77.5688 12.1764 68.8639 8.77951 59.9348 6.56353C48.7836 3.79607 35.9428 1.57839 24.3525 2.08973C18.5079 2.34757 12.8129 7.67742 9.16231 11.835C5.08321 16.4806 1.74065 18.6621 1.74065 25.0483C1.74065 31.9121 1.63171 38.7856 1.74065 45.6487C1.89703 55.501 16.6545 63.8907 25.4622 63.8907" stroke="white" stroke-width="3" stroke-linecap="round"/>
</svg>
