<?xml version="1.0" encoding="UTF-8"?>
<!DOCTYPE svg PUBLIC "-//W3C//DTD SVG 1.1//EN" "http://www.w3.org/Graphics/SVG/1.1/DTD/svg11.dtd">
<svg xmlns="http://www.w3.org/2000/svg" version="1.1" width="264px" height="261px" style="shape-rendering:geometricPrecision; text-rendering:geometricPrecision; image-rendering:optimizeQuality; fill-rule:evenodd; clip-rule:evenodd" xmlns:xlink="http://www.w3.org/1999/xlink">
<g><path style="opacity:0" fill="#fdfdfd" d="M -0.5,-0.5 C 87.5,-0.5 175.5,-0.5 263.5,-0.5C 263.5,86.5 263.5,173.5 263.5,260.5C 175.5,260.5 87.5,260.5 -0.5,260.5C -0.5,173.5 -0.5,86.5 -0.5,-0.5 Z"/></g>
<g><path style="opacity:1" fill="#ffffff" d="M 188.5,114.5 C 187.711,114.783 187.044,115.283 186.5,116C 189.482,116.498 192.482,116.665 195.5,116.5C 216.161,115.955 234.661,121.955 251,134.5C 255.426,144.224 252.426,150.224 242,152.5C 235.254,149.914 228.754,146.747 222.5,143C 218.877,141.844 215.211,140.844 211.5,140C 195.843,138.093 180.177,136.76 164.5,136C 163.643,136.689 162.977,137.522 162.5,138.5C 174.435,153.604 187.269,167.937 201,181.5C 203.333,184.833 205.667,188.167 208,191.5C 212.3,202.103 217.634,212.103 224,221.5C 224.787,233.715 219.287,238.215 207.5,235C 199.775,224.933 193.275,214.099 188,202.5C 179.752,193.25 171.086,184.25 162,175.5C 159.385,171.217 156.385,167.217 153,163.5C 154.52,182.088 154.853,200.755 154,219.5C 151.965,227.732 150.299,236.065 149,244.5C 145.205,253.321 139.205,255.321 131,250.5C 129.448,248.232 128.615,245.732 128.5,243C 130.308,236.699 131.475,230.199 132,223.5C 132.667,207.167 132.667,190.833 132,174.5C 131.808,172.423 131.308,170.423 130.5,168.5C 125.255,173.246 119.588,177.412 113.5,181C 95.4274,189.895 78.0941,199.895 61.5,211C 57.3583,215.665 52.3583,218.831 46.5,220.5C 38.7505,219.585 35.2505,215.252 36,207.5C 37.1217,205.376 38.6217,203.543 40.5,202C 51.6407,194.591 62.6407,186.924 73.5,179C 89.8962,171.389 105.063,161.889 119,150.5C 121.582,145.667 124.415,141 127.5,136.5C 126.687,135.186 125.687,134.019 124.5,133C 95.1667,132.333 65.8333,132.333 36.5,133C 30.7063,133.207 25.0396,134.04 19.5,135.5C 11.7084,134.611 8.87505,130.277 11,122.5C 12.8224,119.679 14.9891,117.179 17.5,115C 46.4376,112.921 75.4376,111.588 104.5,111C 92.6471,97.4699 79.3138,85.8032 64.5,76C 52.4621,65.6396 42.2954,53.8062 34,40.5C 30.5,28 35,23.5 47.5,27C 55.0843,38.4555 64.0843,48.7888 74.5,58C 94.8162,71.6448 113.316,87.4782 130,105.5C 131.301,76.8817 131.967,48.215 132,19.5C 135.213,12.5184 140.38,10.685 147.5,14C 149.041,15.5793 150.208,17.4127 151,19.5C 151.167,49.8388 151.667,80.1722 152.5,110.5C 155.103,111.562 157.77,111.728 160.5,111C 170.082,103.421 178.248,94.5873 185,84.5C 193.279,76.2208 201.613,67.8874 210,59.5C 216.454,50.711 223.287,42.211 230.5,34C 235.09,30.3012 240.09,29.6345 245.5,32C 250.308,39.0411 249.141,44.8744 242,49.5C 228.835,68.0068 214.169,85.3402 198,101.5C 195.002,105.992 191.835,110.325 188.5,114.5 Z"/></g>
<g><path style="opacity:0" fill="#6e6e6e" d="M 188.5,114.5 C 190.833,115.167 193.167,115.833 195.5,116.5C 192.482,116.665 189.482,116.498 186.5,116C 187.044,115.283 187.711,114.783 188.5,114.5 Z"/></g>
</svg>
