<svg width="79" height="107" viewBox="0 0 79 107" fill="none" xmlns="http://www.w3.org/2000/svg">
<path d="M21.8249 34.1332C21.8249 38.1641 17.3609 39.0894 14.0911 40.6532C10.1656 42.5306 5.18082 45.9532 3.40946 50.0863C1.05225 55.5865 2.47308 63.8409 2.47308 69.7156C2.47308 78.1697 7.96606 85.7582 12.4611 92.5008C16.6354 98.7623 24.1448 100.968 31.1887 102.801C36.9827 104.309 42.3528 105.298 48.3209 105.298C56.3769 105.298 65.1214 100.283 70.2045 94.0268C74.9111 88.234 75.5106 80.3552 75.5106 72.9756C75.5106 65.3177 73.0233 58.2518 68.297 52.2365C66.5537 50.0178 64.6264 48.774 62.7828 46.9304C60.7149 44.8625 61.1528 42.7117 61.1528 39.7862C61.1528 36.0498 63.0871 32.7165 63.7885 29.1392C64.7034 24.4732 66.6157 19.4231 68.6438 15.1282C70.5496 11.0925 67.6334 11.4732 64.3087 11.6948C60.6002 11.9421 57.5269 14.9178 54.9103 17.2437C53.314 18.6626 51.8506 19.6439 50.6792 21.5095C50.1617 22.3336 49.3458 24.059 48.529 24.6307C47.805 25.1376 39.5227 10.945 38.8184 9.30186C37.697 6.68513 34.6081 4.23493 32.4719 2.36572C29.9784 0.183906 30.5644 12.4838 30.5644 14.4346C30.5644 17.5939 31.3451 19.5474 32.9227 22.2724C34.4496 24.9097 35.6135 26.0847 31.05 25.255C27.1896 24.5531 23.2245 23.5067 19.3973 22.5499C16.8005 21.9007 13.5941 20.3997 10.9005 20.3997C9.17987 20.3997 3.12182 18.5972 6.35732 20.6771C8.65393 22.1535 11.6131 25.5645 14.3339 26.0179C17.6566 26.5717 21.2007 32.8727 21.2007 36.006" stroke="white" stroke-width="3" stroke-linecap="round"/>
<path d="M48.0435 57.8548C44.5061 57.8548 40.9686 57.8548 37.4312 57.8548C34.7124 57.8548 28.768 59.5558 27.5819 62.2246C24.4147 69.3507 39.3631 72.8369 43.9859 72.8369C49.8922 72.8369 50.5405 81.8575 50.5405 86.293C50.5405 89.8141 44.4862 88.4432 41.9397 88.4432C39.6436 88.4432 37.2546 88.6371 34.9689 88.4085C33.5972 88.2713 33.145 87.1947 31.8129 87.1947" stroke="white" stroke-width="3" stroke-linecap="round"/>
<path d="M39.304 52.8608C36.8617 50.6899 36.807 65.6682 36.807 67.8428C36.807 71.938 37.3151 76.0348 37.4312 79.9811C37.5061 82.5287 37.6445 86.4421 38.8184 88.79C39.3044 89.7619 40.2488 90.416 40.8993 91.2523C42.2924 93.0434 41.7477 95.881 43.0495 97.1827" stroke="white" stroke-width="3" stroke-linecap="round"/>
<path d="M12.4611 36.006C21.5706 36.006 30.68 36.006 39.7895 36.006C44.6217 36.006 49.4538 36.006 54.286 36.006C57.1631 36.006 60.232 37.3869 63.0602 37.8787C67.9062 38.7215 72.4434 39.7515 77.3834 39.7515" stroke="white" stroke-width="3" stroke-linecap="round"/>
</svg>
