<svg width="150" height="166" viewBox="0 0 150 166" fill="none" xmlns="http://www.w3.org/2000/svg">
<path d="M72.0957 81.6226C68.8473 79.9984 80.9545 53.9357 81.945 50.4794C85.5926 37.7517 89.526 25.5964 94.2914 13.2323C95.5773 9.89572 97.0951 6.71371 98.5571 3.45237C99.6162 1.0896 100.136 1.91049 100.187 4.14598C100.431 14.7597 101.544 25.2578 101.436 35.9135C101.303 48.9029 97.335 61.1506 94.0833 73.5073C92.8808 78.0769 93.7406 78.809 98.453 79.6111C104.336 80.6125 110.726 80.2606 116.452 82.2816C122.518 84.4223 129.087 85.3321 135.457 86.0271C138.466 86.3553 140.873 87.7493 143.746 88.3507C144.866 88.585 145.874 88.2031 146.694 89.1137C147.36 89.8539 148.692 89.5927 147.7 90.7783C144.638 94.4358 139.963 95.579 135.457 96.2579C128.477 97.3098 121.934 97.8532 114.892 97.8532C109.904 97.8532 105.958 96.0494 101.123 95.4255C97.5338 94.9624 93.8385 95.0577 90.2337 94.6972C88.1224 94.4861 87.5819 93.8441 87.2165 96.6047C86.8276 99.5432 87.0778 102.629 87.0778 105.587C87.0778 110.528 87.4848 115.691 86.939 120.604C85.5674 132.948 80.5554 145.202 71.957 154.175C70.2257 155.981 67.9428 158.483 67.1364 160.903C66.7161 162.164 65.9827 163.426 64.6047 163.885C63.646 164.205 62.7319 151.272 62.7319 149.805C62.7319 144.293 66.3502 138.693 68.0034 133.436C69.7921 127.747 71.156 122.146 72.72 116.442C73.5905 113.267 74.7883 110.542 74.5927 107.217C74.4075 104.069 66.3953 102.62 64.0151 102.223C58.3689 101.282 52.4405 100.892 46.8829 99.6566C38.6666 97.8307 30.8915 94.2054 22.8145 91.9228C15.9112 89.9719 9.45461 85.6169 2.56095 84.085C-0.897572 83.3164 9.63035 83.4954 13.1732 83.4954C30.9481 83.4954 48.6774 84.1196 66.4774 84.1196" stroke="white" stroke-width="3" stroke-linecap="round"/>
</svg>
