<svg width="223" height="203" viewBox="0 0 223 203" fill="none" xmlns="http://www.w3.org/2000/svg">
<path d="M134.922 18.9807C138.092 18.9807 141.013 20.0544 144.023 20.9425C148.905 22.3831 153.844 23.0264 158.845 23.8851C167.435 25.3602 176.271 26.8278 185.002 26.8278C192.61 26.8278 204.854 26.793 208.489 18.1088C210.458 13.4055 209.204 6.6276 204.593 4.32185C201.687 2.86904 199.217 2.34777 196.01 2.30558C190.964 2.23918 185.66 1.04147 180.697 2.38732C174.822 3.98062 169.832 6.2548 164.785 9.55326C159.322 13.1232 155.812 17.5117 152.197 22.9043C147.66 29.673 147.674 38.9567 147.674 46.7998C147.674 51.9745 148.144 57.1581 149.036 62.2488C150.086 68.242 149.636 74.4951 149.636 80.5587C149.636 85.0742 149.829 89.2668 147.074 93.0923C144.418 96.7815 140.359 100.656 136.067 102.356C129.435 104.982 123.277 106.28 116.122 106.28C111.196 106.28 105.204 107.272 100.864 104.454C92.6386 99.1153 88.871 89.2162 89.3109 79.6868C89.5202 75.1512 95.1544 71.53 98.6566 69.4965C104.157 66.3027 108.291 64.592 114.732 64.592C123.367 64.592 130.399 66.0724 138.519 69.006C142.045 70.28 146.386 71.8462 149.39 74.183C155.671 79.0681 162.993 82.465 169.362 87.2615C171.812 89.1067 174.57 90.7694 176.828 92.8471C179.071 94.9106 180.566 97.4334 182.986 99.4136C186.998 102.696 187.759 106.139 189.852 110.694C191.749 114.822 190.833 121.016 190.833 125.407C190.833 131.12 190.833 136.833 190.833 142.545C190.833 144.589 190.833 146.633 190.833 148.676C190.833 150.673 191.468 153.967 190.615 155.815C188.079 161.31 183.527 166.609 179.335 170.801C175.232 174.904 174.648 180.347 174.648 185.786C174.648 189.886 174.502 195.229 178.463 197.775C180.213 198.9 182.986 198.483 184.92 198.483C188.808 198.483 192.342 198.68 195.955 197.012C203.895 193.347 213.54 187.581 215.955 178.648C222.264 155.303 224.158 129.272 217.317 105.817C214.865 97.4088 213.186 89.2415 208.598 81.5941C207.317 79.4594 200.651 79.5423 198.626 80.8312C192.754 84.5677 186.896 88.054 181.242 92.1659C175.386 96.4247 172.427 102.258 169.989 108.759C167.932 114.244 168.019 120.348 166.801 126.007C165.105 133.891 161.539 140.866 154.976 145.788C148.702 150.493 142.613 154.699 135.603 158.267C133.389 159.394 126.879 163.416 124.023 161.482C120.115 158.834 110.239 145.79 117.648 141.319C127.968 135.092 139.09 144.501 140.808 154.807C141.849 161.054 143.139 168.896 140.699 174.942C138.885 179.434 135.482 183.699 132.307 187.312C130.302 189.593 129.271 191.675 126.857 193.606C120.564 198.641 112.614 199.777 104.76 200.745C99.8073 201.356 95.1397 201.995 90.1283 201.917C87.5192 201.876 85.2083 200.219 82.9351 199.083C70.6585 192.945 71.6549 176.073 71.6549 164.261C71.6549 159.665 70.7798 154.621 73.2352 150.529C75.2014 147.252 78.6298 144.809 81.7362 142.573C85.5454 139.83 88.9732 137.581 90.2918 132.927C91.3268 129.274 91.234 123.967 89.5288 120.557C88.6915 118.882 87.7115 118.195 86.4772 116.961C85.2911 115.775 84.7735 113.987 83.4255 112.928C81.9508 111.769 78.9349 109.275 77.0498 109.223C65.7107 108.908 52.0726 107.706 43.6995 116.797C40.3558 120.427 37.7116 126.297 35.9614 130.911C35.1133 133.147 33.5536 135.415 32.9097 137.668C32.4837 139.159 31.4159 142.259 30.3485 143.445C29.0436 144.895 27.9983 144.663 26.316 145.733C25.3394 146.355 23.9244 145.857 22.8284 146.115C21.1519 146.509 19.4506 146.848 17.7604 147.232C15.643 147.713 13.2823 147.477 11.1122 147.477C8.55898 147.477 6.18978 147.412 3.70103 146.959C-0.917473 146.12 5.10483 143.061 5.82629 142.082C6.45405 141.23 8.14438 140.176 9.09593 139.657C10.6113 138.831 10.109 138.296 8.63273 139.194C6.46945 140.511 4.15365 142.665 2.39318 144.426C-0.0921322 146.911 10.2487 155.023 11.3302 158.267" stroke="white" stroke-width="2" stroke-linecap="round"/>
</svg>
