<?xml version="1.0" encoding="UTF-8"?>
<!DOCTYPE svg PUBLIC "-//W3C//DTD SVG 1.1//EN" "http://www.w3.org/Graphics/SVG/1.1/DTD/svg11.dtd">
<svg xmlns="http://www.w3.org/2000/svg" version="1.1" width="188px" height="149px" style="shape-rendering:geometricPrecision; text-rendering:geometricPrecision; image-rendering:optimizeQuality; fill-rule:evenodd; clip-rule:evenodd" xmlns:xlink="http://www.w3.org/1999/xlink">
<g><path style="opacity:1" fill="#ffffff" d="M 187.5,37.5 C 187.5,44.5 187.5,51.5 187.5,58.5C 185.936,63.3681 184.436,68.3681 183,73.5C 175.1,82.2012 165.267,87.3679 153.5,89C 149.904,91.4356 149.737,94.2689 153,97.5C 164.315,105.773 168.315,116.773 165,130.5C 157.787,137.19 149.287,141.356 139.5,143C 128.823,144.934 118.156,144.934 107.5,143C 103.5,139.667 99.5,136.333 95.5,133C 84.6053,128.033 73.9387,128.366 63.5,134C 57.8738,137.301 52.8738,141.301 48.5,146C 45.7493,146.943 43.0826,147.776 40.5,148.5C 39.5,148.5 38.5,148.5 37.5,148.5C 33.6993,147.361 29.6993,146.528 25.5,146C 23.1013,145.269 20.9347,144.102 19,142.5C 16.913,143.794 14.7463,144.961 12.5,146C 13.5981,146.77 13.5981,147.603 12.5,148.5C 10.8333,148.5 9.16667,148.5 7.5,148.5C 5.3965,147.35 3.3965,146.017 1.5,144.5C 3.63215,142.045 6.29882,140.379 9.5,139.5C 10.8139,140.313 11.9805,141.313 13,142.5C 13.9246,141.953 14.7579,141.287 15.5,140.5C 12.2906,135.995 11.124,130.995 12,125.5C 15.7811,120.799 19.7811,120.466 24,124.5C 25.196,130.052 24.3626,135.219 21.5,140C 23.0009,141.252 24.6675,142.252 26.5,143C 30.5706,143.524 34.5706,144.358 38.5,145.5C 44.1514,145.361 48.4847,142.861 51.5,138C 66.4082,125.06 82.7415,123.06 100.5,132C 105.841,139.726 113.174,142.893 122.5,141.5C 136.323,141.393 149.157,137.727 161,130.5C 162.956,124.193 162.956,117.859 161,111.5C 158.377,107.209 155.044,103.543 151,100.5C 146.9,96.0154 146.733,91.5154 150.5,87C 161.632,84.6838 171.465,79.8504 180,72.5C 184.123,61.523 185.457,50.1897 184,38.5C 183.457,36.3686 182.624,34.3686 181.5,32.5C 180.028,35.8054 177.695,38.3054 174.5,40C 159.279,44.5032 152.446,39.0032 154,23.5C 155.193,15.519 159.693,11.6856 167.5,12C 171.676,14.5876 175.676,17.4209 179.5,20.5C 180.647,18.2351 180.814,15.9018 180,13.5C 176.724,7.71714 171.891,4.05048 165.5,2.5C 158.025,3.70219 150.691,5.53553 143.5,8C 131.997,13.3895 120.331,18.3895 108.5,23C 115.26,27.2581 121.593,32.0915 127.5,37.5C 130.878,30.95 136.211,28.1167 143.5,29C 146.979,33.1451 147.312,37.4785 144.5,42C 140.084,45.0999 135.584,45.2665 131,42.5C 130.594,59.7603 133.594,76.427 140,92.5C 140.497,95.146 140.664,97.8127 140.5,100.5C 142.308,100.491 143.975,100.991 145.5,102C 147.984,104.744 150.984,106.744 154.5,108C 157.991,113.112 158.824,118.612 157,124.5C 153.333,127.95 149.166,128.45 144.5,126C 142.355,122.688 139.688,119.854 136.5,117.5C 133.749,122.291 129.582,124.291 124,123.5C 116.511,123.673 109.511,122.006 103,118.5C 101.965,116.109 101.798,113.776 102.5,111.5C 112.149,110.335 121.816,110.168 131.5,111C 132.5,111.5 133.5,112 134.5,112.5C 136.479,109.407 137.312,106.074 137,102.5C 131.901,99.3627 126.401,98.196 120.5,99C 105.516,101.326 92.5156,107.659 81.5,118C 76.8751,120.704 71.8751,122.038 66.5,122C 60.1667,122.667 53.8333,122.667 47.5,122C 39.5871,120.358 36.5871,115.524 38.5,107.5C 31.9012,107.552 25.5679,106.386 19.5,104C 16.9659,101.253 16.9659,98.5867 19.5,96C 24.8333,95.3333 30.1667,95.3333 35.5,96C 44.0285,100.343 53.0285,103.176 62.5,104.5C 73.0717,105.584 78.7384,100.917 79.5,90.5C 67.5893,92.8922 60.5893,88.2255 58.5,76.5C 58.3647,74.192 59.0314,72.192 60.5,70.5C 67.7422,68.0071 75.0755,67.8405 82.5,70C 84.9185,71.6856 85.9185,74.019 85.5,77C 85.1408,80.5721 84.4741,84.0721 83.5,87.5C 94.1571,88.4734 103.824,85.9734 112.5,80C 116.582,75.4494 116.249,71.116 111.5,67C 107.705,66.1856 104.205,64.6856 101,62.5C 100.333,60.1667 100.333,57.8333 101,55.5C 102.954,53.4386 104.788,51.2719 106.5,49C 106.025,47.2367 105.358,45.57 104.5,44C 101.833,43.3333 99.1667,43.3333 96.5,44C 93.8611,48.4802 90.1945,51.6469 85.5,53.5C 85.3505,52.448 85.5172,51.448 86,50.5C 88.872,47.9634 91.372,45.1301 93.5,42C 104.481,37.341 109.648,40.841 109,52.5C 107.333,53.8333 105.667,55.1667 104,56.5C 103.333,57.8333 103.333,59.1667 104,60.5C 107.268,62.5263 110.768,64.0263 114.5,65C 118.191,69.1733 119.358,74.0066 118,79.5C 107.936,88.4806 96.1022,92.1473 82.5,90.5C 82.6901,97.6315 79.6901,102.798 73.5,106C 68.2012,107.145 62.8679,107.478 57.5,107C 49.4846,105.328 41.818,102.662 34.5,99C 29.798,98.1717 25.1313,98.3384 20.5,99.5C 21.3636,101.197 22.6969,102.363 24.5,103C 29.489,103.749 34.489,104.415 39.5,105C 40,105.5 40.5,106 41,106.5C 39.6509,113.202 42.1509,117.368 48.5,119C 57.9576,119.895 67.2909,119.228 76.5,117C 90.1993,104.649 106.199,97.4828 124.5,95.5C 128.898,96.1977 133.231,97.1977 137.5,98.5C 135.163,88.8198 132.663,79.1531 130,69.5C 128.906,60.1765 127.906,50.8432 127,41.5C 121.912,38.4166 117.412,34.5833 113.5,30C 110.888,28.1105 108.055,26.6105 105,25.5C 99.1215,28.9065 92.9549,31.7398 86.5,34C 69.9822,36.8653 64.9822,30.3653 71.5,14.5C 72.0253,13.8076 72.6919,13.3076 73.5,13C 85.0892,11.9811 95.7559,14.4811 105.5,20.5C 120.028,15.1569 134.362,9.32358 148.5,3C 157.58,-0.166024 166.58,-0.166024 175.5,3C 183.19,8.64967 185.523,15.983 182.5,25C 184.091,29.2893 185.758,33.456 187.5,37.5 Z M 163.5,14.5 C 169.33,16.6734 174.496,20.0067 179,24.5C 178.387,36.4078 172.221,40.5745 160.5,37C 154.717,28.5364 155.717,21.0364 163.5,14.5 Z M 74.5,15.5 C 84.7139,15.1364 94.0472,17.6364 102.5,23C 96.9541,25.9398 91.2874,28.6065 85.5,31C 81.8333,31.6667 78.1667,31.6667 74.5,31C 72.0694,25.9423 72.0694,20.7757 74.5,15.5 Z M 138.5,31.5 C 142.976,31.8222 144.476,34.1556 143,38.5C 139.081,42.1685 134.914,42.3352 130.5,39C 132.432,35.5627 135.099,33.0627 138.5,31.5 Z M 64.5,71.5 C 69.9586,71.1033 75.2919,71.6033 80.5,73C 81.9436,74.126 82.6102,75.626 82.5,77.5C 81.2331,80.7051 80.5664,84.0385 80.5,87.5C 72.0971,89.6535 65.9304,86.9869 62,79.5C 60.8366,76.0289 61.6699,73.3623 64.5,71.5 Z M 140.5,103.5 C 145.1,106.252 149.6,109.252 154,112.5C 154.76,116.225 154.593,119.892 153.5,123.5C 151.102,124.724 148.769,124.558 146.5,123C 144.167,119.333 141.167,116.333 137.5,114C 139.352,110.761 140.352,107.261 140.5,103.5 Z M 105.5,113.5 C 113.84,113.334 122.173,113.5 130.5,114C 133.017,116.194 132.684,118.194 129.5,120C 121.303,120.972 113.47,119.805 106,116.5C 105.517,115.552 105.351,114.552 105.5,113.5 Z M 17.5,124.5 C 20.9496,124.573 22.283,126.406 21.5,130C 21.8908,133.134 20.8908,135.634 18.5,137.5C 15.9072,135.367 14.5739,132.533 14.5,129C 14.5572,126.791 15.5572,125.291 17.5,124.5 Z"/></g>
</svg>
