<?xml version="1.0" standalone="no"?>
<!DOCTYPE svg PUBLIC "-//W3C//DTD SVG 20010904//EN"
 "http://www.w3.org/TR/2001/REC-SVG-20010904/DTD/svg10.dtd">
<svg version="1.0" xmlns="http://www.w3.org/2000/svg"
 width="512.000000pt" height="512.000000pt" viewBox="0 0 512.000000 512.000000"
 preserveAspectRatio="xMidYMid meet">

<g transform="translate(0.000000,512.000000) scale(0.100000,-0.100000)"
fill="#eab2bb" stroke="none">
<path d="M3744 3361 c-56 -24 -72 -108 -30 -158 13 -15 219 -140 458 -278
l434 -250 -2265 -5 c-2188 -5 -2267 -6 -2293 -24 -59 -39 -59 -133 1 -173 25
-17 130 -18 2295 -21 l2270 -2 -435 -250 c-239 -138 -446 -264 -461 -280 -40
-43 -39 -101 1 -141 58 -57 41 -65 737 337 654 378 664 384 664 444 0 60 -10
67 -657 440 -631 364 -668 383 -719 361z"/>
</g>
</svg>
