<svg width="226" height="149" viewBox="0 0 226 149" fill="none" xmlns="http://www.w3.org/2000/svg">
<path d="M125.269 52.8089C124.52 52.5279 127.954 50.019 128.261 49.8065C129.023 49.2793 129.363 48.6569 129.963 48.0072C131.008 46.8744 131.339 45.0262 132.575 44.0727C134.298 42.7437 135.454 42.8587 137.669 42.8587C138.674 42.8587 139.678 42.8587 140.682 42.8587C141.48 42.8587 142.672 42.6237 143.371 43.0538C146.105 44.7363 146.34 48.2234 146.34 51.2481C146.34 52.7677 143.27 53.7473 142.352 54.7491C141.315 55.8795 140.734 56.8379 140.498 58.3693C140.392 59.0607 140.472 59.8731 140.487 60.5696C140.529 62.41 143.186 63.3016 144.498 64.0814C145.402 64.6189 146.351 64.8733 147.359 65.1436C148.162 65.3587 149.217 65.3273 149.95 65.7073C151.573 66.5488 152.835 68.0119 153.841 69.5009C155.385 71.7867 156.022 74.9038 155.9 77.6301C155.839 79.0171 153.847 80.0449 152.887 80.806C151.346 82.0285 149.895 83.3262 148.107 84.2202C147.228 84.6597 146.702 85.6766 145.798 86.0195C144.761 86.4129 143.721 87.0893 142.633 87.2985C139.111 87.9758 135.84 89.0546 132.206 89.2929C127.541 89.5988 122.864 89.317 118.202 89.6397C114.638 89.8865 111.212 90.1576 107.754 89.2929C106.817 89.0588 105.484 88.7773 104.86 88.0139C103.44 86.2792 101.452 85.0379 100.058 83.2772C98.4691 81.2703 98.5405 78.0561 98.5405 75.6358C98.5405 73.958 98.6772 72.9783 100.221 72.0372C102.6 70.5862 104.999 70.5842 107.689 70.2596C109.947 69.9871 111.842 70.0169 114.105 70.368C116.188 70.6911 118.793 71.2076 120.652 72.2757C123.245 73.765 122.763 78.891 122.061 81.1962C121.483 83.096 120.272 85.1514 120.197 87.1901C120.095 89.9471 119.309 92.6057 119.037 95.3302C118.744 98.2623 116.905 100.79 114.918 102.852C113.657 104.162 112.546 104.594 110.984 105.443C110.384 105.769 109.727 105.681 109.065 105.681C107.447 105.681 105.843 105.847 104.242 106.072C98.8008 106.836 93.4496 105.74 88.2977 104.023C84.6582 102.81 81.2036 101.346 77.7513 99.6766C75.7485 98.708 73.4812 98.044 71.313 97.5305C69.7902 97.1698 67.8696 97.4871 66.3054 97.4871C64.2171 97.4871 62.1287 97.4871 60.0404 97.4871C59.159 97.4871 58.4162 97.6145 58.0677 98.5602C57.5862 99.8671 57.8239 102.129 58.9349 102.993C59.8364 103.695 60.8135 104.377 61.8831 104.793C63.1494 105.285 64.5966 105.154 65.8935 105.486C67.4675 105.89 69.1853 105.798 70.7927 106.072C72.3979 106.345 73.9669 106.364 75.5727 106.559C76.179 106.633 78.1904 107.131 78.4342 107.741C79.181 109.608 78.8352 111.926 78.8352 113.919C78.8352 114.71 78.8352 115.502 78.8352 116.293C78.8352 116.95 80.177 118.053 80.7104 118.461C82.636 119.933 85.932 120.898 88.2651 121.333C91.4648 121.929 95.0525 121.859 98.302 121.636C101.823 121.396 105.296 120.791 108.816 120.52C111.862 120.286 115.423 119.403 118.04 117.767C120.134 116.458 121.561 114.448 123.405 112.857C124.953 111.521 126.585 110.265 128.348 109.237C131.771 107.239 135.477 105.784 138.84 103.644C140.756 102.424 143.313 101.42 145.452 100.652C148.694 99.4881 152.301 100.165 155.532 98.9396C158.345 97.8723 161.914 96.7498 164.918 97.3788C167.228 97.8621 169.343 98.9249 171.508 99.785C175.522 101.379 180.27 101.767 183.713 104.522C184.965 105.523 186.078 106.776 187.463 107.589C189.338 108.689 191.398 109.514 193.121 110.862C194.672 112.076 194.328 114.287 194.726 116.076C195.115 117.829 195.145 120.182 194.812 121.94C194.554 123.304 193.835 124.275 193.078 125.376C192.192 126.665 190.252 126.167 188.873 126.167C187.044 126.167 184.986 125.808 183.496 124.65C182.361 123.767 181.776 122.035 180.917 120.899C180.083 119.797 179.059 118.798 177.893 118.049C175.129 116.272 172.341 114.343 169.46 112.792C168.748 112.409 167.896 112.484 167.108 112.402C165.133 112.195 163.199 112.12 161.211 112.12C158.299 112.12 155.387 112.12 152.475 112.12C149.146 112.12 145.81 112.049 142.482 112.12C141.603 112.138 142.048 114.594 142.048 115.241C142.048 116.955 142.967 118.054 144.4 119.024C145.273 119.615 146.464 119.982 147.468 120.271C148.208 120.483 149.007 120.962 149.755 121.073C151.254 121.295 152.781 121.403 154.296 121.636C155.536 121.827 156.841 122.21 158.09 122.265C160.881 122.389 163.754 123.286 166.566 122.807C169.636 122.284 171.607 119.026 173.221 116.694C174.708 114.546 175.631 112.433 176.386 109.93C177.775 105.327 178.482 100.162 177.567 95.4386C176.926 92.1265 175.384 89.1076 174.478 85.8678C173.432 82.1235 172.261 78.4185 171.118 74.7036C170.033 71.1767 169.583 67.1851 169.373 63.507C169.159 59.7635 168.692 55.855 167.975 52.1694C167.402 49.2209 167.411 46.4313 167.411 43.4332C167.411 41.1119 167.847 38.1768 169.07 36.1385C169.977 34.6268 171.257 33.9041 172.592 32.7568C173.951 31.5893 174.817 31.2487 176.581 30.9575C178.018 30.7203 179.984 30.0193 181.199 31.1092C183.263 32.9621 184.107 35.9908 183.962 38.729C183.894 40.0313 182.026 41.1052 181.09 41.7423C179.688 42.6965 178.19 43.4 176.473 43.444C173.378 43.5233 171.098 42.3631 168.278 41.1245C166.323 40.2651 164.256 39.4389 162.577 38.0895C161.536 37.2528 160.628 36.2638 159.607 35.4015C157.713 33.8009 156.013 32.0384 154.144 30.4155C152.984 29.4077 151.721 28.5687 150.438 27.7275C146.522 25.1611 142.606 22.5938 138.612 20.151C137.259 19.3235 136.008 18.3774 134.678 17.5388C134.283 17.2898 133.795 17.0072 133.334 16.9102C132.151 16.6613 130.936 16.5991 129.746 16.4007C127.285 15.9906 124.887 15.3496 122.408 15.0025C120.293 14.7064 118.151 14.2597 116.013 14.1896C115.085 14.1592 113.655 13.9111 112.848 14.5039C109.33 17.0871 109.899 23.1281 109.466 26.8929C109.113 29.9651 109.909 31.9261 112.956 33.0819C114.533 33.6798 116.135 33.8702 117.812 33.884C119.387 33.897 121.113 34.0721 122.646 33.6564C125.511 32.8794 128.202 31.4602 130.949 30.3614C134.113 29.0958 137.297 27.5084 140.206 25.7331C141.659 24.8457 143.105 23.9397 144.574 23.0776C145.905 22.2963 147.45 21.8464 148.833 21.1374C154.34 18.3147 160.272 16.3313 166.067 14.1896C167.374 13.7068 168.766 13.3822 170.034 12.8022C170.998 12.3618 171.85 11.7181 172.831 11.2956C174.347 10.6426 175.699 9.71278 177.166 8.99773C177.951 8.61562 178.836 8.45696 179.638 8.04389C181.245 7.21619 182.892 6.38686 184.645 5.90862C187.91 5.01817 191.151 3.92564 194.476 3.25307C199.603 2.21622 206.646 0.741322 211.418 3.83837C213.909 5.45557 215.66 7.66939 217.607 9.854C218.736 11.1206 219.925 13.2588 220.403 14.905C221.548 18.849 220.345 22.7346 219.699 26.6436C219.182 29.7664 218.113 32.7642 216.469 35.4665C215.35 37.3049 213.966 38.5693 211.851 39.1084C209.277 39.7647 206.202 39.3469 203.549 39.3469C201.424 39.3469 199.048 39.8175 197.37 38.2738C195.508 36.5604 194.488 34.0132 194.054 31.5645C193.612 29.0751 193.401 26.0287 194.184 23.587C194.831 21.5672 195.692 18.2683 197.327 16.7801C198.435 15.7716 199.739 14.9955 200.882 14.027C201.309 13.6655 201.685 13.2609 202.27 13.2141C204.276 13.0535 205.195 14.1089 206.898 14.9375C208.881 15.9025 210.585 17.4305 212.371 18.7094C214.864 20.4933 217.692 22.3458 219.308 25.0394C220.681 27.3275 220.839 30.0928 221.856 32.5075C223.141 35.5612 224.182 38.844 224.652 42.1325C224.956 44.2626 224.771 46.4976 224.771 48.6467C224.771 52.7646 224.545 57.1287 223.514 61.1332C222.896 63.5341 222.2 65.8875 221.65 68.3086C221.252 70.0563 220.944 72.3877 219.677 73.7606C218.014 75.5624 216.531 77.0787 214.615 78.584C209.159 82.8711 202.605 84.7064 196.048 86.724C193.739 87.4344 191.585 87.8545 189.501 89.0978C187.981 90.005 187.718 92.2518 187.94 93.9103C188.183 95.7201 188.977 97.1997 189.946 98.6903C190.74 99.913 191.771 100.581 192.785 101.595C194.097 102.907 195.51 104.056 196.785 105.4C197.784 106.453 198.366 107.727 199.018 108.998C199.547 110.03 200.579 110.539 201.056 111.621C201.543 112.73 201.933 113.957 202.139 115.144C202.914 119.597 202.423 124.275 202.335 128.768C202.308 130.135 201.015 131.928 199.896 132.703C197.574 134.31 195.197 135.511 192.623 136.659C191.504 137.159 190.496 137.838 189.339 138.263C187.612 138.898 185.801 139.285 184.06 139.889C183.034 140.245 181.77 140.511 180.83 141.082C179.308 142.005 177.172 142.041 175.454 142.35C172.262 142.924 168.872 143.336 165.623 143.336C162.844 143.336 160.075 143.183 157.309 143.141C155.44 143.113 153.486 143.323 151.63 143.098C150.249 142.93 147.566 142.806 146.535 141.775C145.907 141.146 145.11 140.686 144.433 140.106C143.498 139.304 142.727 138.341 141.799 137.526C140.252 136.168 138.97 134.773 137.29 133.581C134.619 131.686 131.181 130.882 128.033 130.08C125.705 129.486 123.699 128.899 121.302 128.899C118.491 128.899 115.681 128.899 112.87 128.899C108.995 128.899 105.028 130.742 101.76 132.725C100.671 133.385 99.7968 134.29 98.7573 135.012C98.0576 135.498 97.2832 135.802 96.5895 136.312C94.8619 137.584 92.9959 138.647 91.2133 139.824C90.1351 140.536 89.0643 141.132 88.2435 142.165C87.5499 143.039 86.9481 143.987 86.1624 144.788C83.8252 147.171 80.8028 147.043 77.6755 147.043C76.4866 147.043 75.2733 147.114 74.0878 147.021C72.9351 146.931 71.9323 146.281 70.8144 146.024C69.1873 145.65 67.4823 145.764 65.8718 145.395C61.2373 144.336 58.2941 141.779 54.7402 138.751C53.1859 137.427 52.4898 135.479 52.1063 133.494C51.8522 132.179 51.9176 130.836 51.8137 129.505C51.7319 128.459 51.5103 127.299 52.1063 126.362C53.813 123.68 59.1651 121.988 60.9618 125.582C61.9303 127.519 62.2011 130.544 61.7747 132.649C61.2063 135.455 60.2685 138.238 58.0569 140.204C56.3663 141.706 54.0821 143.44 51.9004 144.203C50.3607 144.742 48.8154 144.58 47.2288 144.788C44.811 145.106 42.45 145.092 40.01 145.092C36.997 145.092 34.2365 145.085 31.2955 144.301C28.8412 143.646 27.0127 143.364 25.9193 140.951C25.1325 139.215 25.3774 137.315 25.3774 135.445C25.3774 132.634 25.4517 129.975 24.6403 127.251C23.9736 125.013 23.0896 122.866 22.2124 120.704C21.5793 119.144 20.3956 117.94 19.5352 116.52C18.5178 114.842 17.2667 113.061 15.915 111.643C13.3029 108.903 8.53994 109.779 5.04346 109.779C4.08409 109.779 3.77062 110.066 3.04909 110.657C2.85595 110.815 2.37503 110.932 2.35539 111.188C2.30492 111.844 2.35539 112.525 2.35539 113.182C2.35539 115.343 2.13561 117.651 3.3309 119.577C4.21323 120.999 6.4685 121.692 8.0025 121.853C9.97636 122.061 10.6311 120.651 11.0916 119.057C11.7082 116.923" stroke="white" stroke-width="2" stroke-linecap="round" stroke-linejoin="round"/>
</svg>
