<?xml version="1.0"?>
<svg width="1000" height="180" xmlns="http://www.w3.org/2000/svg" xmlns:svg="http://www.w3.org/2000/svg" preserveAspectRatio="xMidYMid meet" version="1.0">
 <g class="layer">
  <title>Layer 1</title>
  <g fill="#eab2bb" id="svg_1" transform="matrix(0.193884 0 0 -0.1 0.470494 0)">
   <path d="m3759.49,-96.18c-56,-24 -72,-108 -30,-158c13,-15 219,-140 458,-278l434,-250l-2265,-5c-2188,-5 -2267,-6 -2293,-24c-59,-39 -59,-133 1,-173c25,-17 130,-18 2295,-21l2270,-2l-435,-250c-239,-138 -446,-264 -461,-280c-40,-43 -39,-101 1,-141c58,-57 41,-65 737,337c654,378 664,384 664,444c0,60 -10,67 -657,440c-631,364 -668,383 -719,361z" id="svg_2"/>
  </g>
 </g>
</svg>