<svg width="92" height="79" viewBox="0 0 92 79" fill="none" xmlns="http://www.w3.org/2000/svg">
<path d="M39.0702 6.02067C42.8705 1.72463 48.8292 1.65091 54.0522 1.65091C62.7174 1.65091 67.8433 1.39276 73.6468 8.20556C78.6885 14.1241 80.2708 25.3556 80.2708 32.7942C80.2708 41.3988 71.6264 39.106 65.2194 39.106C60.0401 39.106 54.8253 34.1982 54.6765 28.8406C54.498 22.4153 63.1432 24.124 67.4736 24.124C70.7414 24.124 75.975 23.1276 79.057 24.5402C82.5685 26.1496 84.8536 29.8215 86.5133 33.141C90.1772 40.4686 90.2588 48.3347 90.2588 56.3077C90.2588 63.523 81.9949 64.8266 76.4559 65.6021C67.3094 66.8826 56.2296 66.7825 47.0467 65.8102C42.3463 65.3125 37.754 63.9599 33.0357 63.5906C28.2133 63.2132 23.3045 63.4519 18.4698 63.4519C15.3962 63.4519 9.6785 64.6103 6.88648 63.1744C4.92641 62.1664 10.769 58.0434 11.5684 57.244C13.0923 55.7201 17.8596 52.2153 19.9611 52.2153C22.3112 52.2153 15.8012 54.4151 13.8226 55.6834C11.451 57.2037 9.33423 59.0823 6.95584 60.6081C5.74234 61.3865 1.54499 62.4643 1.61502 64.2149C1.68254 65.9029 5.70383 67.1349 6.92116 67.8563C10.9037 70.2164 14.7294 75.47 19.0941 76.5612" stroke="white" stroke-width="3" stroke-linecap="round"/>
</svg>
